<svg xmlns="http://www.w3.org/2000/svg" width="260.513" height="396.536" viewBox="0 0 260.513 396.536"><defs><style>.a{fill:#fff;}.b{fill:#bdbdbd;}.c{fill:#88c5e9;}.d{fill:#211715;}</style></defs><path class="a" d="M239.334,122.059c8.483-10.325,15.983-22.358,18.644-35.158a3.742,3.742,0,0,0-.034-2.348,3.673,3.673,0,0,0-1.359-1.349A75.637,75.637,0,0,0,242.1,75.542a2.136,2.136,0,0,0-3.119.954c-2.315,3.36-4.124,6.2-6.023,9.07.726-.044-6.254.4-7.854.689-1.983.363-4.9.935-4.988,1.472-1.149,6.824-3.4,16.31-4.973,23.16,0,0-.7,3.04-1.408,6.091-4.659,5.09-11.743,12.078-16.635,17.466-.4-.6-3-1.22-4.14-1.47a5.058,5.058,0,0,0-2.876.023,5.171,5.171,0,0,0-1.171.359,4.05,4.05,0,0,0-1.046.8c-2.259-1.8-4.569-3.551-6.849-5.327q-6.68-5.211-13.08-10.773a5.673,5.673,0,0,0-.057-2.112,19.427,19.427,0,0,0-6.341-11.6,14.64,14.64,0,0,0-13.677-3.028c-3.461-2.462-8.835-4.758-16.545-6.528-4.723-1.08-17.981-3.472-22.75-3.472L69.1,93.117c-4.778,1-20.664,4.4-25.309,5.778-7.042,2.094-11.272,3.572-14.433,5.855-4.705-1.8-10.22.141-14.187,4.2a27.7,27.7,0,0,0-6.914,14.4c-.173.982-.157,4.577.976,6.266C6.242,145.732,4.25,167.2,3.039,186.691a3.308,3.308,0,0,0-.3.545,6.122,6.122,0,0,0,.069,4.032,9.46,9.46,0,0,0,1.007,2.51,4.07,4.07,0,0,0,2,1.75l1.515.555c2.843,7.057,18.736,31.587,23.6,38.23,1.817,2.527,3.778,5.965,5.538,8.331,2.336,2.054,4.637,4.075,6.939,6.07a110.094,110.094,0,0,0-1.487,17.824c.031,24.871,4.223,52.071,2.444,62.305-2.038,8.527-8.079,14.519-13.734,20.535-4.5,4.788-8.222,13.442-8.667,19.208-.208,2.693-.584,6.169-.787,9.643-.405,6.935,4.619,12.9,11.215,13.379,15.788,1.141,35.776,2.422,55.917,2.62,20.141-.2,40.129-1.479,55.917-2.62,6.6-.477,11.62-6.444,11.215-13.379-.2-3.474-.579-6.95-.787-9.643-.444-5.766-4.166-14.42-8.666-19.208-5.745-6.112-11.887-12.2-13.828-20.942-.037-.167-.066-.331-.088-.5-1.409-10.855,2.556-37.226,2.582-61.4a137.972,137.972,0,0,0-5.111-33.861s-1.023-3.315-2.427-7.869a4.76,4.76,0,0,0,1.759-2.742c1.62-7.905.81-19.87-.02-25.334l-.847-5.575,1.146-1.758a47.755,47.755,0,0,0,4.945-9.722,293.739,293.739,0,0,0,9.333-30.222l1.848-7.792,2.092,2.037c.51.5,1.149,1.034,1.845.884,1-.214,1.334-1.682,1.752-2.2,6.449,5.119,25.294,18.964,39.469,27.206l.157.056a7.968,7.968,0,0,0,9.71-3.8l2.933-1.52c6.248-5.573,23.468-26.693,28.44-33.494l3.548-3.98C236.61,125.3,237.985,123.7,239.334,122.059Z"/><path class="b" d="M105.894,84.819q-.017-1.8-.034-3.6-.764.224-1.536.414A61.385,61.385,0,0,1,88.475,83.7a64.542,64.542,0,0,1-15.85-2.065q-.94-.233-1.863-.51l-.147,15.341a16.954,16.954,0,0,0,5.679,2.923c10.1,2.715,20.552,2.266,29.7-4.575Q105.941,89.814,105.894,84.819Z"/><path class="a" d="M122.79,24.964a32.927,32.927,0,0,0-8.538-13.7C107.47,4.8,97.917,2.416,88.475,2.416c-9.212,0-19,2.381-25.778,8.849A32.948,32.948,0,0,0,52.61,35.941c-2.65-.07-4.408-.06-6.405.028a3.6,3.6,0,0,0-1.871.622,3,3,0,0,0-.87,1.878A113.292,113.292,0,0,0,43.5,58.877a3.825,3.825,0,0,0,2.388,3.283c2.224.46,3.86.358,8.088.659A25.926,25.926,0,0,0,58,72.4c3.4,5.089,8.765,7.774,14.627,9.227A64.542,64.542,0,0,0,88.475,83.7a61.385,61.385,0,0,0,15.849-2.065c5.862-1.453,11.369-4.232,14.768-9.321a25.427,25.427,0,0,0,3.882-9.513c3.985-.273,5.593-.188,7.758-.636a3.825,3.825,0,0,0,2.388-3.283,113.292,113.292,0,0,0,.037-20.408,3.005,3.005,0,0,0-.87-1.878,3.6,3.6,0,0,0-1.871-.622c-1.911-.084-3.6-.1-6.07-.036A32.207,32.207,0,0,0,122.79,24.964Z"/><path class="c" d="M70.342,121.946c0,10.825.029,24.586.029,34.911a.725.725,0,0,0,.733.727c8.748-.075,24.785-.117,35-.155a.727.727,0,0,0,.726-.727c0-10.264-.066-23.98-.066-34.846a.724.724,0,0,0-.728-.726c-4.429,0-26.562.031-34.972.09A.725.725,0,0,0,70.342,121.946Z"/><path class="d" d="M91.829,127.285q-5.5.009-10.994.03a4.552,4.552,0,0,0-3.262.857,3.746,3.746,0,0,0-1.078,3.045q0,2.181,0,4.364,0,2.4,0,4.806a2.4,2.4,0,0,0,4.8,0q0-2.495,0-4.989,0-1.4,0-2.8a12.361,12.361,0,0,0,0-2.018,1.544,1.544,0,0,1-1.545,1.542l.292,0,.627,0,1.218-.005q1.6-.007,3.21-.011,3.366-.011,6.732-.015a2.4,2.4,0,1,0,0-4.8Z"/><path class="d" d="M100.675,149.025q0-4.8,0-9.594a2.4,2.4,0,1,0-4.8,0q.007,4.8,0,9.594a2.4,2.4,0,0,0,4.8,0Z"/><path class="d" d="M67.942,121.946q0,9.151.015,18.3,0,4.527.01,9.054l0,4.083a16.62,16.62,0,0,0,.145,4.394c.833,2.884,4.581,2.19,6.868,2.176q3.816-.025,7.632-.041,8.271-.037,16.542-.062l3.616-.012a19.679,19.679,0,0,0,3.968-.1c3.337-.725,2.487-5.159,2.483-7.69q-.014-9.236-.044-18.469-.011-4.461-.015-8.922c0-1.356.288-3.07-.386-4.3a3.382,3.382,0,0,0-3.191-1.631c-3.113-.059-6.234.008-9.348.013q-7.515.012-15.031.033-3.411.011-6.822.025c-2.3.011-5.757-.506-6.359,2.507A2.46,2.46,0,0,0,69.7,124.26a2.422,2.422,0,0,0,2.952-1.676l-.031.061-.861.861c-.315.214-.7.084-.111.11.209.009.42,0,.629,0l1.611-.008q1.721-.009,3.441-.015,4-.015,8.009-.024,7.737-.019,15.475-.029l3.088,0h1.144c.178,0,.361.011.538,0,.518-.035.263.227-.249-.116l-.861-.861q-.15-.558-.115-.105v1.4q0,1.128,0,2.255,0,2.223.007,4.445.009,4.477.022,8.956.012,4.422.022,8.845,0,2.052.008,4.1,0,1.082,0,2.163c0,.32,0,.639,0,.959,0,.361-.27,1,.116.428l.861-.861q.734-.159.059-.112h-.325l-.995,0-2.074.007-4.419.015-9.6.034q-4.569.018-9.137.041-2.047.01-4.095.024l-1.864.012-.878.007-.425,0q-.63-.034.142.122l.861.861q.145.579.113.131v-1.339q0-1.085,0-2.168,0-2.162,0-4.323,0-4.437-.01-8.875-.011-8.822-.014-17.643C72.742,118.858,67.942,118.852,67.942,121.946Z"/><path class="d" d="M74.1,114.6c0,1.4.028,2.794.028,4.191a2.477,2.477,0,0,0,.7,1.7,2.4,2.4,0,0,0,3.394,0,2.5,2.5,0,0,0,.7-1.7c0-1.4-.027-2.794-.028-4.191a2.471,2.471,0,0,0-.7-1.7,2.4,2.4,0,0,0-3.394,0,2.494,2.494,0,0,0-.7,1.7Z"/><path class="d" d="M85.943,114.6c0,1.4.027,2.794.028,4.191a2.473,2.473,0,0,0,.7,1.7,2.4,2.4,0,0,0,3.394,0,2.5,2.5,0,0,0,.7-1.7c0-1.4-.028-2.794-.028-4.191a2.475,2.475,0,0,0-.7-1.7,2.4,2.4,0,0,0-3.394,0,2.494,2.494,0,0,0-.7,1.7Z"/><path class="d" d="M97.783,114.6c0,1.4.027,2.794.028,4.191a2.476,2.476,0,0,0,.7,1.7,2.4,2.4,0,0,0,3.395,0,2.5,2.5,0,0,0,.7-1.7c0-1.4-.028-2.794-.028-4.191a2.48,2.48,0,0,0-.7-1.7,2.4,2.4,0,0,0-3.395,0,2.488,2.488,0,0,0-.7,1.7Z"/><path class="d" d="M74.078,159.713c0,1.4.028,2.794.028,4.191a2.475,2.475,0,0,0,.7,1.7,2.4,2.4,0,0,0,3.394,0,2.494,2.494,0,0,0,.7-1.7c0-1.4-.027-2.794-.028-4.191a2.471,2.471,0,0,0-.7-1.7,2.4,2.4,0,0,0-3.394,0,2.494,2.494,0,0,0-.7,1.7Z"/><path class="d" d="M85.918,159.713c0,1.4.027,2.794.028,4.191a2.475,2.475,0,0,0,.7,1.7,2.4,2.4,0,0,0,3.394,0,2.494,2.494,0,0,0,.7-1.7c0-1.4-.028-2.794-.028-4.191a2.475,2.475,0,0,0-.7-1.7,2.4,2.4,0,0,0-3.394,0,2.494,2.494,0,0,0-.7,1.7Z"/><path class="d" d="M97.758,159.713c0,1.4.027,2.794.028,4.191a2.471,2.471,0,0,0,.7,1.7,2.4,2.4,0,0,0,3.394,0,2.494,2.494,0,0,0,.7-1.7c0-1.4-.028-2.794-.028-4.191a2.48,2.48,0,0,0-.7-1.7,2.4,2.4,0,0,0-3.394,0,2.489,2.489,0,0,0-.7,1.7Z"/><path class="d" d="M112.984,125.347c-1.4,0-2.794.027-4.192.028a2.475,2.475,0,0,0-1.7.7,2.4,2.4,0,0,0,0,3.394,2.5,2.5,0,0,0,1.7.7c1.4,0,2.794-.028,4.192-.028a2.479,2.479,0,0,0,1.7-.7,2.4,2.4,0,0,0,0-3.394,2.5,2.5,0,0,0-1.7-.7Z"/><path class="d" d="M112.984,137.187c-1.4,0-2.794.027-4.192.028a2.475,2.475,0,0,0-1.7.7,2.4,2.4,0,0,0,0,3.394,2.5,2.5,0,0,0,1.7.7c1.4,0,2.794-.028,4.192-.028a2.484,2.484,0,0,0,1.7-.7,2.4,2.4,0,0,0,0-3.394,2.491,2.491,0,0,0-1.7-.7Z"/><path class="d" d="M112.984,149.026c-1.4,0-2.794.028-4.192.028a2.484,2.484,0,0,0-1.7.7,2.4,2.4,0,0,0,0,3.394,2.491,2.491,0,0,0,1.7.7c1.4,0,2.794-.027,4.192-.028a2.475,2.475,0,0,0,1.7-.7,2.4,2.4,0,0,0,0-3.394,2.5,2.5,0,0,0-1.7-.7Z"/><path class="d" d="M67.871,125.347c-1.4,0-2.794.027-4.191.028a2.475,2.475,0,0,0-1.7.7,2.4,2.4,0,0,0,0,3.394,2.5,2.5,0,0,0,1.7.7c1.4,0,2.794-.028,4.191-.028a2.475,2.475,0,0,0,1.7-.7,2.4,2.4,0,0,0,0-3.394,2.492,2.492,0,0,0-1.7-.7Z"/><path class="d" d="M67.871,137.187c-1.4,0-2.794.027-4.191.028a2.475,2.475,0,0,0-1.7.7,2.4,2.4,0,0,0,0,3.394,2.5,2.5,0,0,0,1.7.7c1.4,0,2.794-.028,4.191-.028a2.48,2.48,0,0,0,1.7-.7,2.4,2.4,0,0,0,0-3.394,2.487,2.487,0,0,0-1.7-.7Z"/><path class="d" d="M67.871,149.026c-1.4,0-2.794.028-4.191.028a2.484,2.484,0,0,0-1.7.7,2.4,2.4,0,0,0,0,3.394,2.491,2.491,0,0,0,1.7.7c1.4,0,2.794-.027,4.191-.028a2.471,2.471,0,0,0,1.7-.7,2.4,2.4,0,0,0,0-3.394,2.492,2.492,0,0,0-1.7-.7Z"/><path class="d" d="M103.467,81.968l.106,11.084a2.4,2.4,0,1,0,4.8,0l-.106-11.084a2.4,2.4,0,1,0-4.8,0Z"/><path class="d" d="M68.354,81.968l-.106,11.084a2.4,2.4,0,1,0,4.8,0l.106-11.084a2.4,2.4,0,1,0-4.8,0Z"/><path class="d" d="M6.6,130.789C3.369,149.1,1.832,167.716.666,186.253c-.193,3.085,4.607,3.073,4.8,0,1.139-18.108,2.606-36.3,5.758-54.188a2.469,2.469,0,0,0-1.676-2.952A2.422,2.422,0,0,0,6.6,130.789Z"/><path class="d" d="M31.963,151.206c-1.112,9.287-1.722,18.615-2.384,27.941a2.421,2.421,0,0,0,2.4,2.4,2.446,2.446,0,0,0,2.4-2.4c.662-9.326,1.272-18.654,2.384-27.941a2.414,2.414,0,0,0-2.4-2.4,2.457,2.457,0,0,0-2.4,2.4Z"/><path class="d" d="M36.922,162.837A88.333,88.333,0,0,0,40.391,179.4a60.12,60.12,0,0,0,2.693,7.031,24.031,24.031,0,0,0,3.874,6.5c2.1,2.271,5.492-1.13,3.394-3.395a21.953,21.953,0,0,1-3.123-5.524,51.312,51.312,0,0,1-2.324-6.255,81.92,81.92,0,0,1-3.183-14.915,2.471,2.471,0,0,0-2.4-2.4,2.416,2.416,0,0,0-2.4,2.4Z"/><path class="d" d="M141.119,148.813c-1.552,6.58-3.531,13.074-5.6,19.506-2.223,6.891-4.473,13.745-8.431,19.865-1.682,2.6,2.471,5.01,4.145,2.422,4.1-6.342,6.483-13.5,8.8-20.645,2.122-6.551,4.142-13.168,5.723-19.872.709-3-3.918-4.286-4.628-1.276Z"/><path class="d" d="M126.542,197.366c.112.753.186,1.351.3,2.388.126,1.188.227,2.379.31,3.571.186,2.68.281,5.369.26,8.056a61.408,61.408,0,0,1-.483,7.95,9.286,9.286,0,0,1-.564,2.722,3.4,3.4,0,0,1-2.353,1.621,26.44,26.44,0,0,1-4.029.36q-2.474.178-4.949.336-5.017.318-10.039.548-9.462.433-18.935.549c-6.5.071-13,.02-19.489-.258-3.089-.132-3.082,4.668,0,4.8,12.949.555,25.94.292,38.882-.312q5.019-.234,10.033-.556,2.474-.159,4.943-.34a24.67,24.67,0,0,0,5.215-.595,7.836,7.836,0,0,0,5.616-5.833,52.769,52.769,0,0,0,.9-8.661,96.739,96.739,0,0,0-.989-17.622,2.416,2.416,0,0,0-2.952-1.676,2.461,2.461,0,0,0-1.676,2.952Z"/><path class="d" d="M49.482,210.728a67.905,67.905,0,0,1-.262-7.217c.021-1.035.07-2.071.155-3.1q.057-.685.136-1.369c.015-.124.03-.249.046-.374q-.068.5-.011.092c.037-.234.072-.467.11-.7A2.458,2.458,0,0,0,47.98,195.1a2.428,2.428,0,0,0-2.952,1.676,55.752,55.752,0,0,0-.346,13.948,2.4,2.4,0,0,0,4.8,0Z"/><path class="d" d="M118.1,189.5c-15.576,1.933-31.385,1.974-47.046,1.306q-6.539-.279-13.065-.756a2.421,2.421,0,0,0-2.4,2.4,2.446,2.446,0,0,0,2.4,2.4,356.089,356.089,0,0,0,47.369.609c4.258-.259,8.508-.633,12.742-1.159a2.476,2.476,0,0,0,2.4-2.4,2.414,2.414,0,0,0-2.4-2.4Z"/><path class="d" d="M108.572,93.712c4.824.029,9.632,1.019,14.378,1.863a93.9,93.9,0,0,1,16.343,4.042A31.613,31.613,0,0,1,147,103.634a2.416,2.416,0,0,0,3.283-.861,2.455,2.455,0,0,0-.861-3.284c-5.055-3.7-11.428-5.64-17.462-7.019-5.046-1.154-10.181-2.019-15.3-2.745a60.439,60.439,0,0,0-8.084-.813c-3.089-.019-3.093,4.781,0,4.8Z"/><path class="d" d="M166.225,119.736c6.441,5.6,13.205,10.768,19.89,16.07a2.477,2.477,0,0,0,3.394,0,2.418,2.418,0,0,0,0-3.4c-6.685-5.3-13.449-10.466-19.89-16.07a2.46,2.46,0,0,0-3.394,0,2.423,2.423,0,0,0,0,3.4Z"/><path class="d" d="M152.391,146.5a352.041,352.041,0,0,0,37.553,25.576c2.681,1.544,5.1-2.6,2.423-4.145a351.656,351.656,0,0,1-37.554-25.576,2.412,2.412,0,0,0-3.283.861,2.46,2.46,0,0,0,.861,3.284Z"/><path class="d" d="M230.873,92.816c3.275-4.54,6.23-9.294,9.374-13.923a14.979,14.979,0,0,1,1.077-1.493l-.624.223a4.647,4.647,0,0,1,.577.169c.274.089.544.193.813.3,1.081.414,2.134.9,3.176,1.4,2.364,1.138,4.672,2.4,6.919,3.754.984.593,1.975,1.192,2.916,1.852a2.712,2.712,0,0,1,.655.542,5.25,5.25,0,0,1-.365,1.864,59.129,59.129,0,0,1-2.447,7.891,79.618,79.618,0,0,1-7.88,14.922,129.108,129.108,0,0,1-11.534,14.846c-2.047,2.3,1.336,5.708,3.394,3.394,8.571-9.639,16.326-20.321,20.876-32.484a50.929,50.929,0,0,0,2.569-8.922,5.321,5.321,0,0,0-.924-4.618,15.577,15.577,0,0,0-3.7-2.735,83.6,83.6,0,0,0-7.7-4.277q-1.9-.93-3.868-1.732c-1.451-.594-3.048-1.262-4.631-.753-1.791.576-2.721,2.369-3.707,3.827-1.057,1.563-2.092,3.14-3.126,4.719-1.947,2.973-3.906,5.936-5.986,8.818a2.419,2.419,0,0,0,.861,3.284,2.454,2.454,0,0,0,3.284-.861Z"/><path class="d" d="M66.292,95.814A22.222,22.222,0,0,0,77.5,102.157a42.385,42.385,0,0,0,11.747,1.125,34.166,34.166,0,0,0,22.271-10.106c2.2-2.175-1.193-5.569-3.394-3.395a29.084,29.084,0,0,1-18.877,8.7,37.242,37.242,0,0,1-10.1-.87A17.968,17.968,0,0,1,74.121,95.9a19.307,19.307,0,0,1-4.435-3.479c-2.156-2.22-5.548,1.176-3.394,3.394Z"/><path class="d" d="M217.462,111.525c1.606-6.981,3.286-13.955,4.59-21q.1-.549.2-1.1c.042-.237.084-.474.124-.712q-1.316,1.11-.693.77c.127-.066.116-.06-.031.018.189-.064.379-.123.572-.176.333-.094.67-.175,1.008-.253.834-.192,1.676-.335,2.515-.5.141-.029.609-.083.016-.009.221-.028.443-.052.664-.075,2.155-.227,4.32-.369,6.482-.516a2.457,2.457,0,0,0,2.4-2.4,2.421,2.421,0,0,0-2.4-2.4c-2.314.157-4.635.3-6.939.566a33.981,33.981,0,0,0-4.7.876c-1.657.434-3.1,1.028-3.519,2.826-.883,3.776-1.473,7.638-2.314,11.429s-1.727,7.589-2.6,11.382c-.691,3.007,3.935,4.29,4.629,1.276Z"/><path class="d" d="M204.936,166.024a126.194,126.194,0,0,0,11.218-12.169q6.581-7.695,12.861-15.645c1.675-2.121,3.348-4.249,4.935-6.437a2.418,2.418,0,0,0-.861-3.284,2.455,2.455,0,0,0-3.284.861c-2.979,4.108-6.221,8.067-9.672,12.286-4.235,5.177-8.533,10.312-13.024,15.269a77.522,77.522,0,0,1-5.567,5.725c-2.3,2.068,1.1,5.454,3.394,3.394Z"/><path class="b" d="M153.713,137.313q-1.7,2.883-3.191,5.882c-.293.588-.661,1.247-1.3,1.385-.7.15-1.335-.387-1.845-.884l-2.23-2.172a5.932,5.932,0,0,1-1.867-2.655,6.131,6.131,0,0,1,.422-3.233,93.764,93.764,0,0,0,4.11-34.309,14.643,14.643,0,0,1,13.736,3.013,19.427,19.427,0,0,1,6.341,11.6,5.053,5.053,0,0,1-.031,2.439,5.863,5.863,0,0,1-1.457,2.057A94.367,94.367,0,0,0,153.713,137.313Z"/><path class="b" d="M26.727,142.2A94.4,94.4,0,0,0,11.8,131.907a10.446,10.446,0,0,1-2.536-2.234c-1.167-1.667-1.185-5.323-1.01-6.315a27.7,27.7,0,0,1,6.914-14.4c3.912-4.007,9.328-5.945,13.989-4.278,1.882,11.437,4.834,25.154,8.869,34.869.422,1.017,1.3,1.856,1.378,2.955a5.928,5.928,0,0,1-.979,3.095l-1.471,2.743c-.337.628-.784,1.333-1.492,1.4a2.243,2.243,0,0,1-1.661-.928A94.257,94.257,0,0,0,26.727,142.2Z"/><path class="b" d="M2.735,187.236c.022-.05.045-.1.069-.148a154.276,154.276,0,0,0,27.518-9.471,14.5,14.5,0,0,1,3.333,7.223c-.01,0-.02.553-.03,1.216-7.858,4.089-16.858,7.172-26.036,9.977l-.188.077-1.587-.582a4.07,4.07,0,0,1-2-1.75,9.46,9.46,0,0,1-1.007-2.51A6.122,6.122,0,0,1,2.735,187.236Z"/><path class="b" d="M199.739,163.978c-1.25-10.694-2.084-18.916-2.9-29.77a15.883,15.883,0,0,0-3.879-1.234,5.058,5.058,0,0,0-2.876.023,5.171,5.171,0,0,0-1.171.359,6.227,6.227,0,0,0-1.61,1.386c.571,11.82,1.737,22.6,3.289,34.9a7.968,7.968,0,0,0,9.71-3.8"/><path class="d" d="M199.3,135.591c5.276-5.737,10.874-11.17,16.141-16.915a2.453,2.453,0,0,0,0-3.395,2.426,2.426,0,0,0-3.394,0c-5.267,5.746-10.865,11.179-16.141,16.916a2.45,2.45,0,0,0,0,3.394,2.425,2.425,0,0,0,3.394,0Z"/><path class="d" d="M67.492,231.992a26.584,26.584,0,0,0,3.011-3.55c1.276-2.191-.383-4.49-1.235-6.519a53.83,53.83,0,0,0-2.864-6.365c-1.276-2.182-3.428-1.9-5.577-1.515C54.336,215.2,47.467,216.7,41.76,220.1c-2.652,1.579-.241,5.73,2.422,4.144a34.915,34.915,0,0,1,9.5-3.659q2.681-.692,5.384-1.3c.827-.183,1.657-.359,2.49-.517.354-.068.708-.135,1.064-.191.237-.037.629.055.288-.136l-.861-.861a50.813,50.813,0,0,1,2.245,4.771c.374.892.743,1.787,1.126,2.676.212.494.8,1.459.751,1.881l.328-1.212a14.854,14.854,0,0,1-2.395,2.9,2.463,2.463,0,0,0,0,3.394,2.421,2.421,0,0,0,3.394,0Z"/><path class="d" d="M151.64,136.1c-1.159,1.978-2.184,4.013-3.267,6.031a4.661,4.661,0,0,1-.249.441q1.946.067,1.212-.326c-.12-.362-.942-.906-1.222-1.179a25.363,25.363,0,0,1-2.05-2.032c-1.038-1.276.088-3.173.494-4.559q.924-3.156,1.623-6.37a96.91,96.91,0,0,0,2.027-26.78l-1.761,2.315c7.913-2.468,14.873,3.868,16.751,11.189a6.122,6.122,0,0,1,.41,2.752c-.209.691-1.056,1.313-1.523,1.817q-2.295,2.475-4.407,5.112A100.514,100.514,0,0,0,151.64,136.1c-1.578,2.664,2.569,5.081,4.145,2.423a91.613,91.613,0,0,1,6.867-10.089q1.883-2.385,3.916-4.644c1.293-1.436,3.038-2.851,3.6-4.771.553-1.887.067-4-.444-5.849a23.113,23.113,0,0,0-2.22-5.336,19.085,19.085,0,0,0-7.987-7.674,16.788,16.788,0,0,0-12.347-1.148,2.443,2.443,0,0,0-1.762,2.314,92.1,92.1,0,0,1-1.566,24.125q-.6,2.991-1.4,5.94a51.175,51.175,0,0,0-1.546,5.623,6.453,6.453,0,0,0,1.9,5.55,21.478,21.478,0,0,0,4.067,3.787,3.885,3.885,0,0,0,5.577-1.649c1.161-2.033,2.159-4.156,3.345-6.179C157.35,135.853,153.2,133.435,151.64,136.1Z"/><path class="d" d="M28.424,140.5a101.025,101.025,0,0,0-10.537-7.764c-1.7-1.082-3.556-1.973-5.206-3.115a3.649,3.649,0,0,1-1.919-2.748,9.665,9.665,0,0,1-.175-1.668c-.011-.308-.015-.618,0-.926.009-.29.1-.925-.011-.287a30.549,30.549,0,0,1,1.513-5.588,21.31,21.31,0,0,1,6.124-9c2.877-2.381,6.684-3.644,10.314-2.419l-1.677-1.676c1.215,7.345,2.667,14.663,4.591,21.858.9,3.379,1.912,6.734,3.114,10.019a26.3,26.3,0,0,0,2.033,4.7c.4.656.536.848.242,1.57a24.752,24.752,0,0,1-1.205,2.3,9.154,9.154,0,0,0-.736,1.371c-.017.055-.229.319-.2.371s1.048-.022,1.057-.147c.014-.193-.891-.909-1.043-1.062q-.567-.574-1.145-1.138-2.477-2.418-5.125-4.648a2.465,2.465,0,0,0-3.395,0,2.421,2.421,0,0,0,0,3.394q2.643,2.235,5.126,4.648c1.485,1.45,3,3.644,5.31,3.593,2.545-.056,3.594-2.644,4.615-4.548,1.043-1.944,2.156-3.982,1.537-6.256a14.344,14.344,0,0,0-1.36-2.667,22.46,22.46,0,0,1-.945-2.389c-.7-1.881-1.329-3.787-1.914-5.706-1.234-4.049-2.269-8.157-3.189-12.288-1.051-4.721-1.946-9.475-2.735-14.246a2.393,2.393,0,0,0-1.676-1.677c-8.869-2.993-17.284,4.021-20.97,11.561-1.682,3.438-3.209,7.54-3.036,11.43a11.451,11.451,0,0,0,1.262,5.313,11.952,11.952,0,0,0,4.526,3.871A92.074,92.074,0,0,1,25.029,143.9a2.467,2.467,0,0,0,3.395,0A2.42,2.42,0,0,0,28.424,140.5Z"/><path class="d" d="M30.416,106.955a27.231,27.231,0,0,1,7.175-3.572c2.854-1.011,5.761-1.923,8.694-2.682,5.345-1.382,10.753-2.538,16.147-3.711q3.653-.793,7.31-1.563c3.022-.633,1.743-5.261-1.276-4.629C57.931,93,47.212,95.006,37.014,98.51a33.188,33.188,0,0,0-9.021,4.3,2.473,2.473,0,0,0-.861,3.284,2.419,2.419,0,0,0,3.284.861Z"/><path class="d" d="M4.808,188.447l.069-.147-1.435,1.1a155.756,155.756,0,0,0,28.091-9.713l-2.908-.376a10.5,10.5,0,0,1,2.6,6.742l1.189-2.072a110.224,110.224,0,0,1-12.6,5.468c-2.18.8-4.378,1.558-6.586,2.283-2.129.7-4.395,1.211-6.467,2.06H8.039c-.363-.133-.727-.268-1.091-.4-.041-.015-.66-.319-.276-.094A2.576,2.576,0,0,1,5.6,192.049a5.688,5.688,0,0,1-.546-4.175,2.421,2.421,0,0,0-1.677-2.952A2.451,2.451,0,0,0,.421,186.6c-1.226,3.3.343,8.377,3.185,10.426,1.148.828,3.173,1.712,4.563,1.347,1.757-.462,3.494-1.086,5.223-1.645a140.9,140.9,0,0,0,21.445-8.6,2.4,2.4,0,0,0,1.188-2.073c.062-3.842-1.632-7.189-4.006-10.136a2.439,2.439,0,0,0-2.908-.375,136.377,136.377,0,0,1-14.052,5.511q-3.6,1.2-7.245,2.229-1.739.492-3.489.946c-1.269.329-3.033.45-3.662,1.794a2.466,2.466,0,0,0,.861,3.283A2.421,2.421,0,0,0,4.808,188.447Z"/><path class="d" d="M202.139,163.978c-.618-5.3-1.206-10.6-1.717-15.9q-.372-3.858-.694-7.719-.174-2.1-.337-4.2c-.122-1.577.025-3.25-1.542-4.137a13.872,13.872,0,0,0-6.568-1.625c-2.293.1-5.926,1.39-6.331,4.032a20.2,20.2,0,0,0,.16,4.069q.125,2.079.275,4.157.3,4.114.689,8.221c.594,6.271,1.335,12.526,2.122,18.775a2.533,2.533,0,0,0,1.762,2.314,10.531,10.531,0,0,0,12.421-4.9c1.509-2.7-2.636-5.122-4.145-2.423a5.711,5.711,0,0,1-7,2.694L193,169.645c-1.46-11.6-2.717-23.222-3.289-34.9l-.7,1.7a3.04,3.04,0,0,1,1.323-1.035,3.809,3.809,0,0,1,2-.116,12.544,12.544,0,0,1,3.306.992l-1.189-2.072c.747,9.945,1.74,19.864,2.9,29.77a2.473,2.473,0,0,0,2.4,2.4,2.415,2.415,0,0,0,2.4-2.4Z"/><path class="d" d="M5.517,197.9a125.794,125.794,0,0,0,8.055,14.278q5.273,8.581,10.877,16.957c1.439,2.149,2.885,4.3,4.411,6.386a2.471,2.471,0,0,0,3.284.861,2.419,2.419,0,0,0,.861-3.284c-3.164-4.328-6.078-8.849-8.985-13.351-3.657-5.663-7.253-11.373-10.618-17.215a77.319,77.319,0,0,1-3.74-7.055,2.418,2.418,0,0,0-3.284-.861,2.46,2.46,0,0,0-.861,3.284Z"/><path class="d" d="M37.769,201.21c3.341,5.9,6.347,11.99,9.7,17.889,1.525,2.685,5.674.27,4.144-2.423-3.35-5.9-6.357-11.985-9.7-17.889-1.521-2.688-5.67-.272-4.144,2.423Z"/><path class="d" d="M42.146,327.8c-1.315,5.706-4.606,10.44-8.445,14.755-1.927,2.166-4.071,4.168-5.892,6.425a37.261,37.261,0,0,0-4.531,7.193,40.975,40.975,0,0,0-3.053,8.3,58.528,58.528,0,0,0-1.034,8.415c-.29,3.257-.761,6.57,0,9.8a15.311,15.311,0,0,0,3.7,6.849,14.3,14.3,0,0,0,6.867,4.077c2.766.694,5.8.634,8.637.83q9.921.685,19.853,1.215c14.619.759,29.217,1.153,43.851.688,13.534-.43,27.052-1.249,40.557-2.216a17.272,17.272,0,0,0,7.8-1.993A14.849,14.849,0,0,0,156,386.378c2.963-5.534,1.583-11.987,1.04-17.94A37.3,37.3,0,0,0,151.5,352.78c-3.015-4.943-7.521-8.683-11.093-13.2a33.3,33.3,0,0,1-4.543-7.408,18.025,18.025,0,0,1-1.58-6.2,107.16,107.16,0,0,1,.233-13.528c.758-12.738,2.015-25.44,2.408-38.2a130.891,130.891,0,0,0-.458-17.7,157.089,157.089,0,0,0-2.8-17.506c-.519-2.355-1.1-4.7-1.808-7-.9-2.946-5.536-1.69-4.629,1.276a114.662,114.662,0,0,1,3.375,15.267,120.962,120.962,0,0,1,1.627,16.158c.325,12.694-.911,25.459-1.852,38.106-.388,5.221-.787,10.448-.95,15.683-.13,4.146-.3,8.513.937,12.521,1.708,5.558,5.093,10.293,8.9,14.609,1.853,2.1,3.884,4.052,5.705,6.18a31.281,31.281,0,0,1,4.226,6.759,34.96,34.96,0,0,1,2.647,7.482,58.009,58.009,0,0,1,.868,7.747c.247,2.856.7,5.773-.186,8.557a10.124,10.124,0,0,1-3.67,5.078c-2.021,1.449-4.18,1.719-6.592,1.891q-4.438.317-8.879.61-9.853.648-19.719,1.121c-7.129.332-14.262.577-21.4.7-7.053.117-14.112-.1-21.16-.356q-10.323-.377-20.634-1.007c-6.017-.359-12.084-.6-18.082-1.2a10.056,10.056,0,0,1-8.711-8.476c-.495-2.969.165-6.249.432-9.221a36.562,36.562,0,0,1,1.15-7.307,33.786,33.786,0,0,1,7.6-13.693c3.943-4.182,8.01-8.407,10.821-13.469a30.581,30.581,0,0,0,3.093-7.968c.693-3.006-3.934-4.29-4.628-1.276Z"/><path class="d" d="M41.1,248.084c-3.641,22.466.093,45.219,1.143,67.748a70.971,70.971,0,0,1-.139,12.11,2.413,2.413,0,0,0,2.4,2.4,2.459,2.459,0,0,0,2.4-2.4,63.891,63.891,0,0,0,.215-10.287c-.174-4.737-.524-9.467-.873-14.194-.837-11.308-1.743-22.62-1.9-33.963a115.529,115.529,0,0,1,1.382-20.138,2.474,2.474,0,0,0-1.677-2.952,2.42,2.42,0,0,0-2.952,1.676Z"/><path class="d" d="M55.351,336.725a178.92,178.92,0,0,0,25.039,3.161,142.771,142.771,0,0,0,29.825-1.624c3.721-.651,7.405-1.49,11.123-2.157a2.422,2.422,0,0,0,1.676-2.953,2.453,2.453,0,0,0-2.952-1.676c-6.991,1.256-13.7,2.813-20.662,3.335a150.481,150.481,0,0,1-30.659-.66c-3.849-.506-8.117-1.339-12.114-2.055a2.469,2.469,0,0,0-2.953,1.677,2.421,2.421,0,0,0,1.677,2.952Z"/><path class="d" d="M28.86,235.524c1.146,1.613,2.19,3.294,3.258,4.959a20.286,20.286,0,0,0,3.347,4.467c3.071,2.7,6.146,5.394,9.254,8.051,6.343,5.423,12.842,10.662,19.6,15.565a2.4,2.4,0,0,0,2.909-.375,96.312,96.312,0,0,0,5.94-8.163,107.511,107.511,0,0,0,7.021-10.82,2.475,2.475,0,0,0-.375-2.908,65.513,65.513,0,0,1-13.328-19.839,2.476,2.476,0,0,0-2.952-1.676,2.417,2.417,0,0,0-1.676,2.953,71.683,71.683,0,0,0,14.561,21.956l-.375-2.909a105.881,105.881,0,0,1-6.849,10.575q-1.808,2.592-3.66,5.15c-.439.6-.879,1.207-1.327,1.805-.087.116-.551.717-.257.345s-.041.049-.117.137l2.908-.375c-6.424-4.664-12.592-9.657-18.625-14.815-2.991-2.558-5.952-5.15-8.908-7.748a18.336,18.336,0,0,1-3.176-4.165c-.987-1.544-1.962-3.1-3.024-4.593a2.468,2.468,0,0,0-3.284-.861,2.42,2.42,0,0,0-.861,3.284Z"/><path class="d" d="M125.1,24.326a35.027,35.027,0,0,0-12.07-17.193C107.463,2.954,100.582.961,93.728.274A49.3,49.3,0,0,0,73.662,2.222a33.233,33.233,0,0,0-16.591,11.85A35.24,35.24,0,0,0,50.21,35.941l2.4-2.4c-3.739-.093-9.9-1.075-11.3,3.553a27.084,27.084,0,0,0-.587,6.466q-.142,3.409-.084,6.823c.038,2.378.146,4.756.341,7.126s.63,4.621,2.647,6.148c1.342,1.016,3.123,1.114,4.749,1.239,1.865.144,3.736.194,5.6.323l-2.314-1.762a25.807,25.807,0,0,0,9.514,15.652c4.779,3.574,10.778,5.07,16.567,6.042a64.281,64.281,0,0,0,20.047.249c5.623-.827,11.49-2.169,16.373-5.191a25.125,25.125,0,0,0,11.124-16.775L122.974,65.2c1.831-.122,3.67-.163,5.5-.318,1.681-.142,3.424-.281,4.764-1.409,1.851-1.556,2.218-3.686,2.405-5.96.194-2.37.3-4.748.341-7.126q.055-3.411-.085-6.823a31.083,31.083,0,0,0-.486-6.1c-1.234-4.905-7.183-4.014-11.066-3.924l2.4,2.4A35.515,35.515,0,0,0,125.1,24.326c-.923-2.936-5.558-1.682-4.628,1.276a31.288,31.288,0,0,1,1.47,10.331,2.425,2.425,0,0,0,2.4,2.4c1.709-.04,3.419-.055,5.128,0a9.277,9.277,0,0,0,.992.052c.46-.039.352.39.153-.094a5.317,5.317,0,0,1,.266,1.662c.27,3.468.355,6.952.3,10.43q-.047,2.877-.238,5.749c-.065.96.153,3.155-.882,3.743a6.177,6.177,0,0,1-2.388.26c-1.567.1-3.135.157-4.7.261a2.453,2.453,0,0,0-2.314,1.762c-1,5.11-3.475,10.126-7.819,13.183-4.227,2.974-9.324,4.2-14.336,5.1a57.322,57.322,0,0,1-17.438.387c-5.184-.667-10.747-1.755-15.308-4.429-5.156-3.023-8.347-8.427-9.467-14.221a2.44,2.44,0,0,0-2.315-1.762c-1.6-.111-3.2-.177-4.8-.27-.521-.03-1.042-.068-1.562-.121-.556-.056.165.038-.341-.044a2.921,2.921,0,0,1-.751-.138c-.943-.473-.786-2.747-.851-3.714q-.2-2.871-.238-5.749c-.058-3.541.031-7.089.313-10.62a6.928,6.928,0,0,1,.082-.98c.133-.572.3-.477-.064-.276a3.521,3.521,0,0,1,1.541-.179c1.767-.053,3.534-.031,5.3.013a2.425,2.425,0,0,0,2.4-2.4c-.351-12,6.565-23.86,17.894-28.358a43.491,43.491,0,0,1,18-2.713A36.589,36.589,0,0,1,107.99,9.523,29.222,29.222,0,0,1,120.476,25.6C121.437,28.523,126.073,27.272,125.1,24.326Z"/><path class="d" d="M78.154,41.978c.665,2.161.232,7.131-3.861,7.554-5.41-.033-5.7-6.042-3.877-8.867C71.907,38.352,76.291,37.39,78.154,41.978Z"/><path class="d" d="M106.571,41.978c.665,2.161.232,7.131-3.861,7.554-5.41-.033-5.7-6.042-3.877-8.867C100.324,38.352,104.708,37.39,106.571,41.978Z"/></svg>